<svg width="38" height="38" viewBox="0 0 38 38" fill="none" xmlns="http://www.w3.org/2000/svg">
<ellipse cx="18.9661" cy="19.0001" rx="18.8305" ry="18.0714" fill="#422D4B"/>
<g clip-path="url(#clip0)">
<path d="M30.4565 20.1753L22.9123 27.7221C22.2387 28.396 21.0711 27.9243 21.0711 26.9585V22.646H14.9639C14.3666 22.646 13.8862 22.1653 13.8862 21.5679V17.2554C13.8862 16.6579 14.3666 16.1772 14.9639 16.1772H21.0711V11.8647C21.0711 10.9034 22.2342 10.4272 22.9123 11.1011L30.4565 18.6479C30.8741 19.0702 30.8741 19.753 30.4565 20.1753ZM16.7601 27.4975V25.7007C16.7601 25.4042 16.5176 25.1616 16.2213 25.1616H12.4492C11.6543 25.1616 11.0122 24.5192 11.0122 23.7241V15.0991C11.0122 14.304 11.6543 13.6616 12.4492 13.6616H16.2213C16.5176 13.6616 16.7601 13.419 16.7601 13.1225V11.3257C16.7601 11.0292 16.5176 10.7866 16.2213 10.7866H12.4492C10.0691 10.7866 8.13818 12.7182 8.13818 15.0991V23.7241C8.13818 26.105 10.0691 28.0366 12.4492 28.0366H16.2213C16.5176 28.0366 16.7601 27.794 16.7601 27.4975Z" fill="#C548FF"/>
</g>
<defs>
<clipPath id="clip0">
<rect width="22.9919" height="23" fill="white" transform="translate(8.13818 7.5)"/>
</clipPath>
</defs>
</svg>
