<svg width="40" height="39" viewBox="0 0 40 39" fill="none" xmlns="http://www.w3.org/2000/svg">
<path d="M20 0.129395C9.29945 0.129395 0.625 8.80385 0.625 19.5044C0.625 30.2049 9.29945 38.8794 20 38.8794C30.7005 38.8794 39.375 30.2049 39.375 19.5044C39.375 8.80385 30.7005 0.129395 20 0.129395ZM20 3.87939C28.6353 3.87939 35.625 10.8678 35.625 19.5044C35.625 28.1397 28.6366 35.1294 20 35.1294C11.3647 35.1294 4.375 28.141 4.375 19.5044C4.375 10.8691 11.3634 3.87939 20 3.87939Z" fill="#FF7070"/>
<path d="M23.7909 20.1294L29.4767 14.6568C30.1744 13.9853 30.1744 12.8964 29.4767 12.2243L28.2131 11.0081C27.5153 10.3365 26.3841 10.3365 25.6858 11.0081L20 16.4806L14.3142 11.0081C13.6165 10.3365 12.4852 10.3365 11.7869 11.0081L10.5233 12.2243C9.82557 12.8959 9.82557 13.9847 10.5233 14.6568L16.2091 20.1294L10.5233 25.602C9.82557 26.2735 9.82557 27.3624 10.5233 28.0345L11.7869 29.2507C12.4847 29.9223 13.6165 29.9223 14.3142 29.2507L20 23.7781L25.6858 29.2507C26.3835 29.9223 27.5153 29.9223 28.2131 29.2507L29.4767 28.0345C30.1744 27.3629 30.1744 26.2741 29.4767 25.602L23.7909 20.1294Z" fill="#FF7070"/>
</svg>
