<svg width="40" height="39" viewBox="0 0 40 39" fill="none" xmlns="http://www.w3.org/2000/svg">
<path d="M20 0.129395C9.29945 0.129395 0.625 8.80385 0.625 19.5044C0.625 30.2049 9.29945 38.8794 20 38.8794C30.7005 38.8794 39.375 30.2049 39.375 19.5044C39.375 8.80385 30.7005 0.129395 20 0.129395ZM20 3.87939C28.6353 3.87939 35.625 10.8678 35.625 19.5044C35.625 28.1397 28.6366 35.1294 20 35.1294C11.3647 35.1294 4.375 28.141 4.375 19.5044C4.375 10.8691 11.3634 3.87939 20 3.87939Z" fill="#7848FF"/>
<g clip-path="url(#clip0)">
<path d="M23.0769 12.6294C24.3514 12.6294 25.3846 11.6221 25.3846 10.3794C25.3846 9.13674 24.3514 8.12939 23.0769 8.12939C21.8024 8.12939 20.7692 9.13674 20.7692 10.3794C20.7692 11.6221 21.8024 12.6294 23.0769 12.6294ZM15.4659 23.0108L14.7543 24.6289H11.5385C10.6889 24.6289 10 25.3006 10 26.1289C10 26.9572 10.6889 27.6289 11.5385 27.6289H15.262C16.1875 27.6289 17.0207 27.0927 17.3827 26.2653L17.8053 25.3035L17.2923 25.0081C16.4596 24.5286 15.8471 23.8189 15.4659 23.0108ZM28.4615 18.6289H26.3447L25.0918 16.1328C24.4909 14.9352 23.3875 14.0596 22.1216 13.745L18.7043 12.7541C17.3438 12.4353 15.9269 12.7283 14.8178 13.5575L12.9106 14.983C12.2361 15.4869 12.1082 16.4281 12.626 17.0858C13.1438 17.7435 14.1087 17.8667 14.7827 17.3633L16.6909 15.9378C17.0596 15.6617 17.5293 15.5628 17.9058 15.65L18.6125 15.8549L16.8115 19.9513C16.2048 21.3331 16.7486 22.9517 18.076 23.7158L22.1615 26.0675L20.8409 30.1799C20.587 30.9702 21.0385 31.8116 21.849 32.0591C22.0024 32.106 22.1572 32.1285 22.3096 32.1285C22.9639 32.1285 23.5707 31.7174 23.7769 31.0761L25.2981 26.3389C25.5822 25.3653 25.1591 24.3195 24.2577 23.7894L21.3135 22.0953L22.8188 18.426L23.7933 20.368C24.1779 21.1339 24.9913 21.6285 25.8659 21.6285H28.4615C29.3111 21.6285 30 20.9567 30 20.1285C30 19.3002 29.3111 18.6289 28.4615 18.6289Z" fill="#7848FF"/>
</g>
<defs>
<clipPath id="clip0">
<rect width="20" height="24" fill="white" transform="translate(10 8.12939)"/>
</clipPath>
</defs>
</svg>
