<svg width="40" height="39" viewBox="0 0 40 39" fill="none" xmlns="http://www.w3.org/2000/svg">
<path d="M20 0.129395C9.29945 0.129395 0.625 8.80385 0.625 19.5044C0.625 30.2049 9.29945 38.8794 20 38.8794C30.7005 38.8794 39.375 30.2049 39.375 19.5044C39.375 8.80385 30.7005 0.129395 20 0.129395ZM20 3.87939C28.6353 3.87939 35.625 10.8678 35.625 19.5044C35.625 28.1397 28.6366 35.1294 20 35.1294C11.3647 35.1294 4.375 28.141 4.375 19.5044C4.375 10.8691 11.3634 3.87939 20 3.87939Z" fill="#13FFB8"/>
<path d="M16.4722 27.8152L9.32217 20.8419C8.89261 20.423 8.89261 19.7438 9.32217 19.3248L10.8778 17.8076C11.3073 17.3886 12.0039 17.3886 12.4334 17.8076L17.25 22.505L27.5666 12.4436C27.9961 12.0247 28.6927 12.0247 29.1222 12.4436L30.6778 13.9608C31.1074 14.3797 31.1074 15.059 30.6778 15.4779L18.0278 27.8152C17.5982 28.2341 16.9017 28.2341 16.4722 27.8152V27.8152Z" fill="#13FFB8"/>
</svg>
